<?xml version="1.0" encoding="utf-8"?>
<!-- Generator: Adobe Illustrator 21.0.0, SVG Export Plug-In . SVG Version: 6.00 Build 0)  -->
<svg version="1.1" id="Layer_1" xmlns="http://www.w3.org/2000/svg" xmlns:xlink="http://www.w3.org/1999/xlink" x="0px" y="0px"
	 viewBox="0 0 540 133.3" style="enable-background:new 0 0 540 133.3;" xml:space="preserve">
<style type="text/css">
	.st0{fill:none;stroke:#000000;stroke-width:1.1464;stroke-miterlimit:10;}
</style>
<polygon points="181,80.9 145.5,5.5 102.8,5.5 162.2,126.7 "/>
<polygon points="128.9,83.7 92.1,5.5 48,5.5 108.8,126.7 "/>
<polygon points="168.1,5.5 168.1,5.5 190.2,49.4 209.5,5.5 "/>
<line class="st0" x1="225.9" y1="4.7" x2="225.9" y2="126.1"/>
<g>
	<path d="M282,37.1c2.8,3,4.9,5.7,6,8.3s1.6,5.5,1.6,9.2c0,6.9-2.3,12.6-7,17.2c-4.7,4.6-10.5,6.9-17.6,6.9s-12.8-2.3-17.6-6.9
		c-4.7-4.6-7-10.3-7-17.2c0-3.5,0.5-6.5,1.8-9.2c1.1-2.6,3.1-5.4,5.8-8.3c-2.6-3.4-3.8-7-3.8-11.1c0-5.8,1.9-10.7,5.8-14.5
		c3.9-3.8,8.8-5.7,14.9-5.7s11.1,1.9,15,5.7s5.8,8.7,5.8,14.6C285.8,30.1,284.6,33.7,282,37.1z M265,46.5c-2.3,0-4.3,0.8-6,2.4
		c-1.6,1.6-2.4,3.5-2.4,5.8c0,2.4,0.8,4.5,2.4,6.2c1.6,1.8,3.7,2.4,6,2.4c2.4,0,4.5-0.8,6-2.4c1.5-1.6,2.4-3.7,2.4-6.2
		c0-2.3-0.8-4.2-2.4-5.8C269.2,47.3,267.3,46.5,265,46.5z M264.8,20.6c-1.5,0-2.8,0.5-3.9,1.6s-1.6,2.4-1.6,3.9
		c0,1.8,0.5,3.1,1.6,4.3c1.1,1.1,2.4,1.6,4.2,1.6c1.5,0,2.8-0.5,3.9-1.8c1.1-1.2,1.6-2.6,1.6-4.1c0-1.6-0.5-3-1.6-4.1
		C267.8,21.2,266.5,20.6,264.8,20.6z"/>
</g>
<g>
	<path d="M370.9,75.5h-13.7l-10.1-30.8L337,75.5h-13.7l-16.9-56.3h18.1l7,29.2l9.7-29.2h11.9l9.7,29.2l7-29.2H388L370.9,75.5z"/>
	<path d="M407.7,53c0,4.6,3.5,8.8,10,8.8c6,0,8.5-1.6,11.6-4.7l10.3,10.3c-5.8,5.8-11.4,8.9-21.9,8.9c-12.4,0-26.8-4.5-26.8-28.8
		c0-18.4,10.4-28.8,25.3-28.8c16.4,0,25.3,11.9,25.3,26.6v7.6L407.7,53L407.7,53z M423.5,37.1c-1.1-2.4-3.4-4.3-7.4-4.3
		c-4.1,0-6.4,2-7.4,4.3c-0.7,1.5-0.9,3-0.9,4.5h16.8C424.4,40.2,424.2,38.6,423.5,37.1z"/>
	<path d="M470.8,76.2c-8.5,0-16.8-0.4-24.5-8.1L457.4,57c4.7,4.7,10.8,4.7,13.7,4.7c2.6,0,7.3-0.7,7.3-3.7c0-1.6-0.7-3.2-4.1-3.5
		l-8.7-0.8c-9.7-0.9-16.4-5.3-16.4-16.4c0-12.4,11.2-18.7,22.5-18.7c9.2,0,16.6,1.4,22.2,6.9L483.4,36c-2.8-2.8-7.6-3.4-11.9-3.4
		c-4.2,0-5.5,2-5.5,3.2c0,0.7-0.3,2.7,3.7,3.1l8.7,0.8c11.8,1.2,16.9,8.1,16.9,17.2C495.3,70.4,483.9,76.2,470.8,76.2z"/>
	<path d="M522.2,75.5c-12.4,0-17.4-8.9-17.4-16.6V34.6h-5.1V21.3h5.1v-16H522v16.1h8.9v13.3H522v23c0,2.2,1.2,3.5,3.5,3.5h5.4v14.5
		h-8.7V75.5z"/>
</g>
<g>
	<path d="M248.5,127.2c-2.3,0-4.5-0.8-6.1-2.4c-2.3-2.3-2.3-4.6-2.3-9.7s0-7.4,2.3-9.7c1.6-1.6,3.8-2.4,6.1-2.4
		c4.3,0,7.4,2.6,8.3,7.2h-2.6c-0.7-3-2.7-4.9-5.7-4.9c-1.6,0-3.1,0.5-4.2,1.6c-1.5,1.5-1.6,3.2-1.6,8.3c0,5,0.1,6.6,1.6,8.3
		c1.1,1.1,2.6,1.6,4.2,1.6c3,0,5.1-1.9,5.8-4.9h2.6C256,124.6,252.8,127.2,248.5,127.2z"/>
	<path d="M286.5,124.8c-1.6,1.6-3.8,2.4-6.1,2.4c-2.4,0-4.5-0.8-6.1-2.4c-2.3-2.3-2.3-4.6-2.3-9.7s0-7.4,2.3-9.7
		c1.6-1.6,3.8-2.4,6.1-2.4c2.4,0,4.5,0.8,6.1,2.4c2.3,2.3,2.3,4.6,2.3,9.7C288.8,120.2,288.8,122.5,286.5,124.8z M284.4,106.8
		c-1.1-1.1-2.6-1.8-4.2-1.8s-3.1,0.7-4.2,1.8c-1.5,1.5-1.6,3.1-1.6,8.1s0.1,6.6,1.6,8.1c1.1,1.1,2.6,1.8,4.2,1.8s3.1-0.7,4.2-1.8
		c1.5-1.5,1.6-3.1,1.6-8.1C286.1,109.9,286.1,108.4,284.4,106.8z"/>
	<path d="M320.6,126.9l-12.7-19.2v19.2h-2.6V103h2.4l12.7,19.2V103h2.6v23.9H320.6z"/>
	<path d="M346.5,127.2c-3.7,0-6-0.9-8.3-3.1l1.8-1.8c2,2,3.8,2.6,6.5,2.6c3.5,0,5.7-1.6,5.7-4.5c0-1.2-0.4-2.3-1.1-3
		c-0.8-0.7-1.4-0.8-3.1-1.1l-2.8-0.4c-1.9-0.3-3.4-0.9-4.5-1.8c-1.2-1.1-1.8-2.6-1.8-4.5c0-4.1,3-6.8,7.7-6.8c3.1,0,5.1,0.8,7.2,2.6
		l-1.6,1.6c-1.5-1.4-3.1-2-5.5-2c-3.2,0-5,1.8-5,4.5c0,1.2,0.3,2.2,1.1,2.7c0.7,0.7,2,1.1,3.2,1.4l2.6,0.4c2.3,0.3,3.4,0.8,4.3,1.6
		c1.4,1.1,2,2.7,2,4.7C354.8,124.6,351.5,127.2,346.5,127.2z"/>
	<path d="M378.6,127.2c-4.9,0-8.4-3.4-8.4-8.1V103h2.6v15.8c0,3.7,2.3,6.1,5.8,6.1s5.8-2.4,5.8-6.1V103h2.6v16.1
		C387,123.8,383.4,127.2,378.6,127.2z"/>
	<path d="M404.1,126.9V103h2.6v21.6H419v2.3H404.1z"/>
	<path d="M438.2,105.3v21.6h-2.6v-21.6h-6.9V103h16.4v2.3H438.2z"/>
	<path d="M460,126.9V103h2.6v23.9H460z"/>
	<path d="M495.3,126.9l-12.7-19.2v19.2H480V103h2.4l12.7,19.2V103h2.6v23.9H495.3z"/>
	<path d="M529,124.5c-1.6,1.8-3.9,2.7-6.4,2.7c-2.3,0-4.5-0.8-6.1-2.4c-2.3-2.3-2.3-4.6-2.3-9.7s0-7.4,2.3-9.7
		c1.6-1.6,3.8-2.4,6.1-2.4c4.6,0,7.7,3,8.4,7.2h-2.6c-0.7-3-2.8-4.9-5.8-4.9c-1.6,0-3.1,0.7-4.2,1.8c-1.5,1.5-1.6,3.1-1.6,8.1
		s0.1,6.6,1.6,8.3c1.1,1.1,2.6,1.6,4.2,1.6c1.8,0,3.4-0.7,4.6-2c0.9-1.2,1.4-2.4,1.4-4.3V117h-6v-2.3h8.4v3.8
		C531,121,530.5,122.9,529,124.5z"/>
</g>
<g>
	<path d="M79.5,57c4.7,5,8.1,9.5,9.9,13.7s2.7,9.2,2.7,15.1c0,11.4-3.9,21-11.6,28.5c-7.8,7.6-17.4,11.5-29.1,11.5
		S30,122,22.2,114.3c-7.8-7.6-11.6-17.2-11.6-28.5c0-5.8,0.9-10.8,2.8-15.1c1.9-4.3,5.1-8.9,9.7-13.7c-4.2-5.5-6.2-11.6-6.2-18.4
		c0-9.7,3.2-17.7,9.7-24.1S41.3,5,51.2,5c10.1,0,18.4,3.1,24.9,9.5s9.7,14.3,9.7,24.2C85.8,45.4,83.7,51.5,79.5,57z M51.1,72.7
		c-3.8,0-7,1.4-9.9,4.1c-2.7,2.7-4.1,6-4.1,9.6c0,4.1,1.4,7.6,3.9,10.3c2.7,2.7,6,4.1,9.9,4.1s7.3-1.4,9.9-4.1
		c2.7-2.7,3.9-6.1,3.9-10.3c0-3.7-1.4-6.9-4.2-9.6C58.2,74.1,54.9,72.7,51.1,72.7z M51,29.8c-2.6,0-4.7,0.9-6.5,2.8
		c-1.8,1.9-2.7,4.1-2.7,6.5c0,2.8,0.9,5.3,2.7,7c1.8,1.9,4.1,2.8,6.9,2.8c2.6,0,4.7-0.9,6.5-2.8c1.8-1.9,2.7-4.2,2.7-6.8
		c0-2.7-0.9-5-2.8-6.8C55.9,30.8,53.6,29.8,51,29.8z"/>
</g>
</svg>
